<?xml version="1.0" standalone="no"?><svg xmlns="http://www.w3.org/2000/svg" viewBox="0 0 1440 320"><path fill="#1e1e1e" fill-opacity="1" d="M0,0L30,26.7C60,53,120,107,180,128C240,149,300,139,360,160C420,181,480,235,540,234.7C600,235,660,181,720,186.7C780,192,840,256,900,261.3C960,267,1020,213,1080,176C1140,139,1200,117,1260,106.7C1320,96,1380,96,1410,96L1440,96L1440,320L1410,320C1380,320,1320,320,1260,320C1200,320,1140,320,1080,320C1020,320,960,320,900,320C840,320,780,320,720,320C660,320,600,320,540,320C480,320,420,320,360,320C300,320,240,320,180,320C120,320,60,320,30,320L0,320Z"></path></svg>